<?xml version="1.0" encoding="UTF-8"?><svg id="Layer_2" xmlns="http://www.w3.org/2000/svg" viewBox="0 0 30.17 30.17"><defs><style>.cls-1{fill:aqua;}</style></defs><g id="Context"><g><path class="cls-1" d="M15.09,30.17C6.77,30.17,0,23.4,0,15.09S6.77,0,15.09,0s15.09,6.77,15.09,15.09-6.77,15.09-15.09,15.09Zm0-27.43C8.28,2.74,2.74,8.28,2.74,15.09s5.54,12.34,12.34,12.34,12.34-5.54,12.34-12.34S21.89,2.74,15.09,2.74Z"/><path class="cls-1" d="M15.09,23.31c-.76,0-1.37-.61-1.37-1.37v-.69c0-.76,.61-1.37,1.37-1.37s1.37,.61,1.37,1.37v.69c0,.76-.61,1.37-1.37,1.37Zm0-5.49c-.76,0-1.37-.61-1.37-1.37v-2.86l.62-.41c2.04-1.35,2.13-1.66,2.13-2.25,0-.52-.37-1.34-1.37-1.34-.56,0-.9,.06-1.52,1.28-.34,.68-1.16,.95-1.84,.61-.68-.34-.95-1.17-.61-1.84,.7-1.38,1.71-2.79,3.97-2.79,2.58,0,4.11,2.08,4.11,4.08s-1.06,2.97-2.74,4.12v1.39c0,.76-.61,1.37-1.37,1.37Z"/></g></g></svg>