<?xml version="1.0" encoding="UTF-8"?><svg id="Layer_2" xmlns="http://www.w3.org/2000/svg" viewBox="0 0 309.73 202.58"><defs><style>.cls-1,.cls-2,.cls-3,.cls-4,.cls-5,.cls-6,.cls-7,.cls-8,.cls-9,.cls-10,.cls-11{stroke-miterlimit:10;}.cls-1,.cls-4,.cls-6,.cls-7,.cls-9{fill:none;}.cls-1,.cls-6,.cls-8,.cls-9,.cls-11{stroke:#ccc;}.cls-1,.cls-11{stroke-width:.56px;}.cls-2{stroke:aqua;stroke-width:.35px;}.cls-3{fill:#a7dcf8;stroke:#596389;stroke-width:1.2px;}.cls-12{fill:#004e8b;}.cls-13{fill:#fff;}.cls-14{fill:#ffd261;}.cls-15{fill:#333;}.cls-16{fill:#ccc;}.cls-17{fill:#1074b8;}.cls-18{fill:#26a2d4;}.cls-19{fill:#2e3192;}.cls-4{stroke:gray;stroke-width:.7px;}.cls-5{fill:#010016;opacity:.88;stroke:#29abe2;stroke-width:2px;}.cls-6,.cls-7{stroke-width:1.44px;}.cls-7,.cls-10{stroke:#999;}.cls-8{stroke-width:2.16px;}.cls-8,.cls-10{fill:#f2f2f2;}.cls-9{stroke-width:1.59px;}.cls-10{stroke-width:1.73px;}.cls-11{fill:#29abe2;}</style></defs><g id="map"><g><polygon class="cls-5" points="308.73 1 282.44 1 83.96 44.5 102.99 116.1 102.99 129.25 141.62 129.25 141.62 123.81 153.29 123.81 153.29 135.03 186.83 135.03 186.83 178.64 290.15 178.64 290.15 173.2 301.93 173.2 301.93 166.4 308.73 166.4 308.73 1"/><polygon class="cls-2" points="153.29 49.04 199.55 49.04 199.55 54.47 244.38 54.47 244.38 108.4 198.2 108.4 198.2 102.96 153.29 102.96 153.29 49.04"/><rect class="cls-2" x="203.14" y="123.81" width="43.5" height="62.99"/><g><path class="cls-13" d="M171.73,83.48v-9.26h6.1v1.61h-4.29v2.17h3.65v1.61h-3.65v2.25h4.29v1.61h-6.1Z"/><path class="cls-13" d="M183.18,83.48l-1.25-2.03-1.24,2.03h-2.03l2.34-3.46-2.25-3.32h2.03l1.14,1.94,1.16-1.94h2.03l-2.25,3.32,2.34,3.46h-2.03Z"/><path class="cls-13" d="M191.3,82.94c-.38,.38-.99,.61-1.65,.61s-1.2-.18-1.64-.68v3.08h-1.69v-9.26h1.64v.64c.47-.52,.98-.71,1.69-.71,.66,0,1.27,.23,1.65,.61,.68,.68,.69,1.83,.69,2.85s-.01,2.18-.69,2.86Zm-2.15-4.8c-1.01,0-1.14,.83-1.14,1.94s.13,1.95,1.14,1.95,1.14-.85,1.14-1.95-.13-1.94-1.14-1.94Z"/><path class="cls-13" d="M198.28,82.72c-.42,.44-1.1,.83-2.11,.83s-1.68-.39-2.09-.83c-.61-.64-.77-1.4-.77-2.64s.16-1.99,.77-2.63c.42-.44,1.09-.83,2.09-.83s1.69,.39,2.11,.83c.61,.64,.77,1.4,.77,2.63s-.16,2-.77,2.64Zm-1.31-4.28c-.2-.19-.46-.3-.79-.3s-.58,.1-.78,.3c-.35,.35-.39,.94-.39,1.64s.04,1.3,.39,1.65c.2,.2,.44,.3,.78,.3s.6-.1,.79-.3c.35-.35,.39-.95,.39-1.65s-.04-1.29-.39-1.64Z"/><path class="cls-13" d="M208.74,83.48v-3.87h-3.13v3.87h-1.81v-9.26h1.81v3.78h3.13v-3.78h1.81v9.26h-1.81Z"/><path class="cls-13" d="M216.05,83.48v-.58c-.46,.46-.88,.65-1.66,.65s-1.33-.19-1.73-.6c-.36-.38-.56-.92-.56-1.52,0-1.08,.74-1.96,2.31-1.96h1.6v-.34c0-.74-.36-1.07-1.26-1.07-.65,0-.95,.16-1.3,.56l-1.08-1.05c.66-.73,1.31-.94,2.44-.94,1.9,0,2.89,.81,2.89,2.39v4.46h-1.65Zm-.04-2.86h-1.34c-.61,0-.95,.29-.95,.77s.31,.78,.98,.78c.47,0,.77-.04,1.07-.33,.18-.17,.25-.44,.25-.86v-.36Z"/><path class="cls-13" d="M221.43,83.48c-1.39,0-1.98-.98-1.98-1.94v-7.32h1.69v7.22c0,.4,.17,.61,.6,.61h.65v1.43h-.96Z"/><path class="cls-13" d="M225.65,83.48c-1.39,0-1.98-.98-1.98-1.94v-7.32h1.69v7.22c0,.4,.17,.61,.6,.61h.65v1.43h-.96Z"/></g><g><path class="cls-13" d="M207.82,158.47l-2.38-4.21-1.2,1.43v2.78h-1.81v-9.26h1.81v4.03l3.26-4.03h2.2l-3.07,3.68,3.29,5.58h-2.11Z"/><path class="cls-13" d="M212.28,155.61c0,.87,.53,1.51,1.48,1.51,.74,0,1.11-.21,1.53-.64l1.03,1c-.69,.69-1.35,1.07-2.57,1.07-1.6,0-3.13-.73-3.13-3.47,0-2.21,1.2-3.46,2.95-3.46,1.88,0,2.95,1.38,2.95,3.24v.75h-4.24Zm2.42-1.88c-.18-.4-.56-.7-1.13-.7s-.95,.3-1.13,.7c-.1,.25-.14,.43-.16,.73h2.57c-.01-.3-.05-.48-.16-.73Z"/><path class="cls-13" d="M220.47,159.56c-.14,.38-.3,.66-.51,.87-.39,.39-.9,.52-1.46,.52h-.66v-1.52h.39c.48,0,.68-.12,.84-.61l.29-.83-2.31-6.29h1.78l1.4,4.19,1.35-4.19h1.78l-2.9,7.87Z"/><path class="cls-13" d="M228.31,158.47v-4.09c0-.92-.59-1.24-1.12-1.24s-1.13,.31-1.13,1.24v4.09h-1.69v-6.77h1.65v.62c.44-.47,1.07-.7,1.69-.7,.68,0,1.22,.22,1.6,.6,.55,.55,.69,1.18,.69,1.92v4.33h-1.69Z"/><path class="cls-13" d="M236.5,157.72c-.42,.44-1.1,.83-2.11,.83s-1.68-.39-2.09-.83c-.61-.64-.77-1.4-.77-2.64s.16-1.99,.77-2.63c.42-.44,1.09-.83,2.09-.83s1.69,.39,2.11,.83c.61,.64,.77,1.4,.77,2.63s-.16,2-.77,2.64Zm-1.31-4.28c-.2-.2-.46-.3-.79-.3s-.58,.1-.78,.3c-.35,.35-.39,.94-.39,1.64s.04,1.3,.39,1.65c.2,.2,.44,.3,.78,.3s.6-.1,.79-.3c.35-.35,.39-.95,.39-1.65s-.04-1.29-.39-1.64Z"/><path class="cls-13" d="M240.99,158.47c-1.38,0-1.96-.97-1.96-1.94v-3.35h-.72v-1.29h.72v-2h1.69v2h1.2v1.29h-1.2v3.25c0,.39,.18,.61,.58,.61h.61v1.43h-.92Z"/><path class="cls-13" d="M244.74,155.61c0,.87,.53,1.51,1.48,1.51,.74,0,1.11-.21,1.53-.64l1.03,1c-.69,.69-1.35,1.07-2.57,1.07-1.6,0-3.13-.73-3.13-3.47,0-2.21,1.2-3.46,2.95-3.46,1.88,0,2.95,1.38,2.95,3.24v.75h-4.24Zm2.42-1.88c-.18-.4-.56-.7-1.13-.7s-.95,.3-1.13,.7c-.1,.25-.14,.43-.16,.73h2.57c-.01-.3-.05-.48-.16-.73Z"/></g><g><rect class="cls-4" x="206.87" y="31.27" width="3.02" height="12.2"/><rect class="cls-4" x="209.89" y="31.27" width="3.02" height="12.2"/><rect class="cls-4" x="212.92" y="31.27" width="3.02" height="12.2"/><rect class="cls-4" x="215.94" y="31.27" width="3.02" height="12.2"/><rect class="cls-4" x="218.96" y="31.27" width="3.02" height="12.2"/><rect class="cls-4" x="221.98" y="31.27" width="3.02" height="12.2"/><rect class="cls-4" x="225.01" y="31.27" width="3.02" height="12.2"/><rect class="cls-4" x="228.03" y="31.27" width="3.02" height="12.2"/><rect class="cls-4" x="231.05" y="31.27" width="3.02" height="12.2"/><rect class="cls-4" x="234.07" y="31.27" width="3.02" height="12.2"/><line class="cls-4" x1="237.1" y1="37.37" x2="206.87" y2="37.37"/></g><g><path class="cls-13" d="M139.11,201.22c-1.35,0-2.38-.29-3.25-1.18l1.13-1.13c.56,.56,1.33,.75,2.15,.75,1.03,0,1.58-.39,1.58-1.1,0-.31-.09-.58-.28-.75-.18-.16-.38-.25-.79-.31l-1.08-.15c-.76-.11-1.33-.35-1.73-.74-.43-.43-.64-1-.64-1.75,0-1.59,1.18-2.7,3.1-2.7,1.23,0,2.11,.3,2.88,1.04l-1.1,1.09c-.56-.54-1.24-.61-1.83-.61-.93,0-1.38,.51-1.38,1.13,0,.23,.08,.46,.26,.64,.17,.16,.46,.3,.83,.35l1.05,.15c.81,.11,1.33,.34,1.7,.69,.47,.45,.69,1.1,.69,1.89,0,1.73-1.44,2.7-3.3,2.7Z"/><path class="cls-13" d="M147.27,201.14v-.56c-.44,.44-.85,.63-1.6,.63s-1.28-.19-1.66-.58c-.35-.36-.54-.89-.54-1.46,0-1.04,.71-1.89,2.23-1.89h1.54v-.33c0-.71-.35-1.03-1.21-1.03-.63,0-.91,.15-1.25,.54l-1.04-1.01c.64-.7,1.26-.9,2.35-.9,1.83,0,2.78,.78,2.78,2.3v4.29h-1.59Zm-.04-2.75h-1.29c-.59,0-.91,.28-.91,.74s.3,.75,.94,.75c.45,0,.74-.04,1.03-.31,.18-.16,.24-.43,.24-.83v-.35Z"/><path class="cls-13" d="M154.41,201.14v-3.94c0-.89-.56-1.19-1.08-1.19s-1.09,.3-1.09,1.19v3.94h-1.63v-6.52h1.59v.6c.43-.45,1.03-.68,1.63-.68,.65,0,1.18,.21,1.54,.58,.53,.53,.66,1.14,.66,1.85v4.17h-1.63Z"/><path class="cls-13" d="M162.11,201.22c-.96,0-1.63-.25-2.29-.91l1.15-1.14c.29,.29,.56,.5,1.14,.5,.85,0,1.4-.5,1.4-1.53v-5.91h1.74v5.98c0,1.96-1.49,3-3.14,3Z"/><path class="cls-13" d="M171.6,200.42c-.4,.42-1.06,.8-2.03,.8s-1.61-.38-2.01-.8c-.59-.61-.74-1.35-.74-2.54s.15-1.91,.74-2.53c.4-.43,1.05-.8,2.01-.8s1.63,.38,2.03,.8c.59,.61,.74,1.35,.74,2.53s-.15,1.93-.74,2.54Zm-1.26-4.12c-.19-.19-.44-.29-.76-.29s-.56,.1-.75,.29c-.34,.34-.38,.9-.38,1.58s.04,1.25,.38,1.59c.19,.19,.43,.29,.75,.29s.58-.1,.76-.29c.34-.34,.38-.91,.38-1.59s-.04-1.24-.38-1.58Z"/><path class="cls-13" d="M176.03,201.22c-1.03,0-1.95-.11-2.78-.94l1.06-1.06c.54,.54,1.24,.61,1.74,.61,.56,0,1.15-.19,1.15-.68,0-.33-.18-.55-.69-.6l-1.03-.1c-1.18-.11-1.9-.62-1.9-1.83,0-1.35,1.19-2.08,2.51-2.08,1.01,0,1.86,.17,2.49,.76l-1,1.01c-.38-.34-.95-.44-1.51-.44-.65,0-.93,.3-.93,.62,0,.24,.1,.51,.68,.56l1.03,.1c1.29,.13,1.94,.81,1.94,1.92,0,1.44-1.23,2.13-2.77,2.13Z"/><path class="cls-13" d="M181.44,198.39c0,.84,.51,1.45,1.43,1.45,.71,0,1.06-.2,1.48-.61l.99,.96c-.66,.66-1.3,1.03-2.48,1.03-1.54,0-3.02-.7-3.02-3.34,0-2.13,1.15-3.33,2.84-3.33,1.81,0,2.84,1.33,2.84,3.12v.73h-4.08Zm2.33-1.81c-.17-.39-.54-.67-1.09-.67s-.91,.29-1.09,.67c-.1,.24-.14,.41-.15,.7h2.48c-.01-.29-.05-.46-.15-.7Z"/><path class="cls-13" d="M193.03,201.22c-.95,0-1.75-.33-2.4-.98-.39-.39-.63-.84-.73-1.34-.1-.5-.15-1.24-.15-2.21s.05-1.71,.15-2.21c.1-.51,.34-.95,.73-1.34,.65-.65,1.45-.98,2.4-.98,1.71,0,2.98,1,3.28,2.81h-1.76c-.19-.76-.66-1.26-1.5-1.26-.48,0-.85,.15-1.11,.46-.36,.39-.44,.79-.44,2.52s.08,2.13,.44,2.51c.26,.31,.64,.46,1.11,.46,.84,0,1.31-.5,1.5-1.26h1.76c-.3,1.81-1.58,2.82-3.28,2.82Z"/><path class="cls-13" d="M202.19,200.42c-.4,.42-1.06,.8-2.03,.8s-1.61-.38-2.01-.8c-.59-.61-.74-1.35-.74-2.54s.15-1.91,.74-2.53c.4-.43,1.05-.8,2.01-.8s1.63,.38,2.03,.8c.59,.61,.74,1.35,.74,2.53s-.15,1.93-.74,2.54Zm-1.26-4.12c-.19-.19-.44-.29-.76-.29s-.56,.1-.75,.29c-.34,.34-.38,.9-.38,1.58s.04,1.25,.38,1.59c.19,.19,.43,.29,.75,.29s.58-.1,.76-.29c.34-.34,.38-.91,.38-1.59s-.04-1.24-.38-1.58Z"/><path class="cls-13" d="M208.28,201.14v-3.94c0-.89-.56-1.19-1.08-1.19s-1.09,.3-1.09,1.19v3.94h-1.63v-6.52h1.59v.6c.43-.45,1.03-.68,1.63-.68,.65,0,1.18,.21,1.54,.58,.53,.53,.66,1.14,.66,1.85v4.17h-1.63Z"/><path class="cls-13" d="M214.47,201.14h-1.28l-2.4-6.52h1.71l1.33,4.03,1.31-4.03h1.71l-2.39,6.52Z"/><path class="cls-13" d="M218.98,198.39c0,.84,.51,1.45,1.43,1.45,.71,0,1.06-.2,1.48-.61l.99,.96c-.66,.66-1.3,1.03-2.48,1.03-1.54,0-3.02-.7-3.02-3.34,0-2.13,1.15-3.33,2.84-3.33,1.81,0,2.84,1.33,2.84,3.12v.73h-4.08Zm2.33-1.81c-.17-.39-.54-.67-1.09-.67s-.91,.29-1.09,.67c-.1,.24-.14,.41-.15,.7h2.48c-.01-.29-.05-.46-.15-.7Z"/><path class="cls-13" d="M228.36,201.14v-3.94c0-.89-.56-1.19-1.08-1.19s-1.09,.3-1.09,1.19v3.94h-1.63v-6.52h1.59v.6c.43-.45,1.03-.68,1.63-.68,.65,0,1.18,.21,1.54,.58,.53,.53,.66,1.14,.66,1.85v4.17h-1.63Z"/><path class="cls-13" d="M233.78,201.14c-1.33,0-1.89-.94-1.89-1.86v-3.23h-.69v-1.24h.69v-1.93h1.63v1.93h1.15v1.24h-1.15v3.13c0,.38,.17,.59,.56,.59h.59v1.38h-.89Z"/><path class="cls-13" d="M236.12,193.51v-1.33h1.66v1.33h-1.66Zm.02,7.63v-6.52h1.63v6.52h-1.63Z"/><path class="cls-13" d="M244.09,200.42c-.4,.42-1.06,.8-2.03,.8s-1.61-.38-2.01-.8c-.59-.61-.74-1.35-.74-2.54s.15-1.91,.74-2.53c.4-.43,1.05-.8,2.01-.8s1.63,.38,2.03,.8c.59,.61,.74,1.35,.74,2.53s-.15,1.93-.74,2.54Zm-1.26-4.12c-.19-.19-.44-.29-.76-.29s-.56,.1-.75,.29c-.34,.34-.38,.9-.38,1.58s.04,1.25,.38,1.59c.19,.19,.43,.29,.75,.29s.58-.1,.76-.29c.34-.34,.38-.91,.38-1.59s-.04-1.24-.38-1.58Z"/><path class="cls-13" d="M250.18,201.14v-3.94c0-.89-.56-1.19-1.08-1.19s-1.09,.3-1.09,1.19v3.94h-1.63v-6.52h1.59v.6c.42-.45,1.03-.68,1.63-.68,.65,0,1.18,.21,1.54,.58,.53,.53,.66,1.14,.66,1.85v4.17h-1.63Z"/><path class="cls-13" d="M259.57,201.22c-.95,0-1.75-.33-2.4-.98-.39-.39-.63-.84-.73-1.34-.1-.5-.15-1.24-.15-2.21s.05-1.71,.15-2.21c.1-.51,.34-.95,.73-1.34,.65-.65,1.45-.98,2.4-.98,1.71,0,2.98,1,3.28,2.81h-1.76c-.19-.76-.66-1.26-1.5-1.26-.48,0-.85,.15-1.11,.46-.36,.39-.44,.79-.44,2.52s.08,2.13,.44,2.51c.26,.31,.64,.46,1.11,.46,.84,0,1.31-.5,1.5-1.26h1.76c-.3,1.81-1.58,2.82-3.28,2.82Z"/><path class="cls-13" d="M265.5,198.39c0,.84,.51,1.45,1.43,1.45,.71,0,1.06-.2,1.48-.61l.99,.96c-.66,.66-1.3,1.03-2.48,1.03-1.54,0-3.02-.7-3.02-3.34,0-2.13,1.15-3.33,2.84-3.33,1.81,0,2.84,1.33,2.84,3.12v.73h-4.08Zm2.33-1.81c-.17-.39-.54-.67-1.09-.67s-.91,.29-1.09,.67c-.1,.24-.14,.41-.15,.7h2.48c-.01-.29-.05-.46-.15-.7Z"/><path class="cls-13" d="M274.88,201.14v-3.94c0-.89-.56-1.19-1.08-1.19s-1.09,.3-1.09,1.19v3.94h-1.63v-6.52h1.59v.6c.42-.45,1.03-.68,1.63-.68,.65,0,1.18,.21,1.54,.58,.53,.53,.66,1.14,.66,1.85v4.17h-1.63Z"/><path class="cls-13" d="M280.3,201.14c-1.33,0-1.89-.94-1.89-1.86v-3.23h-.69v-1.24h.69v-1.93h1.63v1.93h1.15v1.24h-1.15v3.13c0,.38,.17,.59,.56,.59h.59v1.38h-.89Z"/><path class="cls-13" d="M283.9,198.39c0,.84,.51,1.45,1.43,1.45,.71,0,1.06-.2,1.48-.61l.99,.96c-.66,.66-1.3,1.03-2.48,1.03-1.54,0-3.02-.7-3.02-3.34,0-2.13,1.15-3.33,2.84-3.33,1.81,0,2.84,1.33,2.84,3.12v.73h-4.08Zm2.33-1.81c-.17-.39-.54-.67-1.09-.67s-.91,.29-1.09,.67c-.1,.24-.14,.41-.15,.7h2.48c-.01-.29-.05-.46-.15-.7Z"/><path class="cls-13" d="M293.03,196.4c-.25-.25-.46-.39-.86-.39-.5,0-1.05,.38-1.05,1.2v3.93h-1.63v-6.52h1.59v.62c.31-.38,.94-.7,1.64-.7,.64,0,1.09,.16,1.54,.61l-1.23,1.24Z"/></g><g><path class="cls-13" d="M110.1,56.57c-.9,0-1.59-.19-2.17-.79l.75-.75c.38,.38,.89,.5,1.44,.5,.69,0,1.05-.26,1.05-.74,0-.21-.06-.38-.18-.5-.12-.11-.25-.17-.53-.21l-.72-.1c-.51-.08-.89-.23-1.15-.49-.28-.28-.43-.67-.43-1.17,0-1.06,.79-1.81,2.07-1.81,.82,0,1.41,.2,1.92,.69l-.74,.73c-.38-.36-.83-.41-1.22-.41-.62,0-.92,.34-.92,.75,0,.15,.05,.31,.18,.43,.12,.11,.31,.2,.55,.23l.7,.1c.54,.08,.89,.23,1.14,.46,.32,.3,.46,.74,.46,1.26,0,1.15-.96,1.81-2.21,1.81Z"/><path class="cls-13" d="M114.09,56.57c-.64,0-1.09-.17-1.53-.61l.77-.76c.19,.19,.38,.33,.76,.33,.57,0,.94-.33,.94-1.02v-3.95h1.16v4c0,1.31-1,2.01-2.1,2.01Z"/><path class="cls-13" d="M119.49,56.57c-.64,0-1.17-.22-1.61-.65-.26-.26-.42-.56-.49-.89-.07-.33-.1-.83-.1-1.48s.03-1.15,.1-1.48c.07-.34,.23-.64,.49-.89,.43-.44,.97-.65,1.61-.65,1.15,0,1.99,.67,2.19,1.88h-1.18c-.13-.51-.44-.84-1-.84-.32,0-.57,.1-.74,.31-.24,.26-.29,.53-.29,1.68s.05,1.42,.29,1.68c.18,.21,.43,.31,.74,.31,.56,0,.88-.33,1-.84h1.18c-.2,1.21-1.05,1.88-2.19,1.88Z"/><path class="cls-13" d="M124.41,56.57c-.64,0-1.17-.22-1.61-.65-.26-.26-.42-.56-.49-.89-.07-.33-.1-.83-.1-1.48s.03-1.15,.1-1.48c.07-.34,.23-.64,.49-.89,.43-.44,.97-.65,1.61-.65,1.15,0,1.99,.67,2.19,1.88h-1.18c-.13-.51-.44-.84-1-.84-.32,0-.57,.1-.74,.31-.24,.26-.29,.53-.29,1.68s.05,1.42,.29,1.68c.18,.21,.43,.31,.74,.31,.56,0,.88-.33,1-.84h1.18c-.2,1.21-1.05,1.88-2.19,1.88Z"/><path class="cls-13" d="M105.98,66.55v-3.47l-1.14,2.26h-.79l-1.15-2.26v3.47h-1.16v-5.95h1.15l1.55,3.22,1.55-3.22h1.15v5.95h-1.16Z"/><path class="cls-13" d="M109.3,64.71c0,.56,.34,.97,.95,.97,.48,0,.71-.13,.99-.41l.66,.64c-.44,.44-.87,.69-1.66,.69-1.03,0-2.02-.47-2.02-2.23,0-1.42,.77-2.22,1.9-2.22,1.21,0,1.9,.89,1.9,2.08v.49h-2.73Zm1.56-1.21c-.12-.26-.36-.45-.73-.45s-.61,.19-.73,.45c-.07,.16-.09,.28-.1,.47h1.66c0-.19-.03-.31-.1-.47Z"/><path class="cls-13" d="M113.88,64.71c0,.56,.34,.97,.95,.97,.48,0,.71-.13,.99-.41l.66,.64c-.44,.44-.87,.69-1.66,.69-1.03,0-2.02-.47-2.02-2.23,0-1.42,.77-2.22,1.9-2.22,1.21,0,1.9,.89,1.9,2.08v.49h-2.73Zm1.56-1.21c-.12-.26-.36-.45-.73-.45s-.61,.19-.73,.45c-.07,.16-.09,.28-.1,.47h1.66c0-.19-.03-.31-.1-.47Z"/><path class="cls-13" d="M118.97,66.55c-.89,0-1.26-.63-1.26-1.25v-2.16h-.46v-.83h.46v-1.29h1.09v1.29h.77v.83h-.77v2.09c0,.25,.12,.39,.38,.39h.39v.92h-.59Z"/><path class="cls-13" d="M120.54,61.45v-.89h1.11v.89h-1.11Zm.02,5.1v-4.36h1.09v4.36h-1.09Z"/><path class="cls-13" d="M125.39,66.55v-2.63c0-.59-.38-.79-.72-.79s-.73,.2-.73,.79v2.63h-1.09v-4.36h1.06v.4c.28-.3,.69-.45,1.09-.45,.43,0,.79,.14,1.03,.38,.35,.35,.44,.76,.44,1.24v2.78h-1.09Z"/><path class="cls-13" d="M129.15,68.2c-.67,0-1.13-.13-1.58-.57l.68-.69c.24,.23,.48,.33,.85,.33,.65,0,.88-.46,.88-.9v-.44c-.28,.32-.61,.43-1.04,.43s-.79-.14-1.04-.38c-.41-.41-.44-.97-.44-1.73s.03-1.31,.44-1.72c.24-.24,.62-.38,1.05-.38,.46,0,.76,.13,1.06,.46v-.41h1.05v4.2c0,1.04-.74,1.81-1.92,1.81Zm.11-5.08c-.64,0-.71,.55-.71,1.13s.07,1.14,.71,1.14,.72-.56,.72-1.14-.08-1.13-.72-1.13Z"/><path class="cls-13" d="M110.25,76.58l-1.16-2.37h-.84v2.37h-1.16v-5.95h2.33c1.21,0,1.93,.83,1.93,1.82,0,.84-.51,1.35-1.09,1.56l1.33,2.57h-1.35Zm-.9-4.92h-1.1v1.57h1.1c.51,0,.84-.33,.84-.79s-.33-.79-.84-.79Z"/><path class="cls-13" d="M115.49,76.1c-.27,.28-.71,.54-1.36,.54s-1.08-.25-1.35-.54c-.39-.41-.49-.9-.49-1.7s.1-1.28,.49-1.69c.27-.28,.7-.54,1.35-.54s1.09,.25,1.36,.54c.39,.41,.49,.9,.49,1.69s-.1,1.29-.49,1.7Zm-.84-2.75c-.13-.13-.29-.19-.51-.19s-.38,.07-.5,.19c-.23,.23-.25,.6-.25,1.05s.02,.84,.25,1.06c.12,.13,.28,.19,.5,.19s.38-.07,.51-.19c.23-.23,.25-.61,.25-1.06s-.03-.83-.25-1.05Z"/><path class="cls-13" d="M120.03,76.1c-.27,.28-.71,.54-1.36,.54s-1.08-.25-1.35-.54c-.39-.41-.49-.9-.49-1.7s.1-1.28,.49-1.69c.27-.28,.7-.54,1.35-.54s1.09,.25,1.36,.54c.39,.41,.49,.9,.49,1.69s-.1,1.29-.49,1.7Zm-.84-2.75c-.13-.13-.29-.19-.51-.19s-.38,.07-.5,.19c-.23,.23-.25,.6-.25,1.05s.02,.84,.25,1.06c.12,.13,.28,.19,.5,.19s.38-.07,.51-.19c.23-.23,.25-.61,.25-1.06s-.03-.83-.25-1.05Z"/><path class="cls-13" d="M126.62,76.58v-2.63c0-.59-.38-.79-.72-.79s-.73,.2-.73,.77v2.66h-1.09v-2.63c0-.59-.38-.79-.72-.79s-.73,.2-.73,.79v2.63h-1.09v-4.36h1.06v.4c.29-.29,.69-.45,1.09-.45,.48,0,.88,.18,1.15,.55,.37-.38,.76-.55,1.3-.55,.43,0,.83,.14,1.07,.38,.35,.35,.48,.76,.48,1.24v2.78h-1.09Z"/></g><rect class="cls-16" x="85.39" y="82.47" width="51.25" height="1.47" transform="translate(222.02 166.42) rotate(-180)"/><path class="cls-10" d="M145.48,128.57s11.6,13.16,2.4,45.55l-14.15,.99-12.16,3.54-12.31-43.14,14.29-4.24h18.39l3.54-2.69Z"/><g><polygon class="cls-1" points="126.34 141.54 133.73 172.57 145.92 169.98 148.13 160.87 146.29 153.61 145.05 145.61 140.38 137.97 126.34 141.54"/><polygon class="cls-1" points="130.02 157.01 146.23 153.25 148.13 160.87 131.83 164.59 130.02 157.01"/><line class="cls-1" x1="128.22" y1="149.42" x2="145.05" y2="145.61"/><line class="cls-1" x1="139.08" y1="163.21" x2="140.55" y2="171.12"/><polygon class="cls-1" points="115.1 134.1 118.49 147.22 113.53 148.7 109.81 135.67 115.1 134.1"/><polygon class="cls-1" points="114.7 152.82 119.55 151.19 124.13 168.6 119.41 169.94 114.7 152.82"/><line class="cls-1" x1="116.37" y1="158.87" x2="121.21" y2="157.51"/><line class="cls-1" x1="111.73" y1="142.63" x2="116.93" y2="141.17"/><polygon class="cls-11" points="117.96 164.67 122.75 163.35 124.13 168.6 119.41 169.94 117.96 164.67"/></g><polygon class="cls-16" points="141.49 83.48 132.99 88.38 132.99 78.57 141.49 83.48"/><rect class="cls-14" x="0" y="90.66" width="105.36" height="111.92" rx="6.54" ry="6.54"/><polygon class="cls-14" points="92.99 189.5 92.99 168.31 121.21 166.17 92.99 189.5"/><g><path class="cls-8" d="M83.51,97.01s22.77,25.82,4.72,89.4l-27.76,1.94-23.88,6.94L12.44,110.62l28.04-8.33h36.09l6.94-5.28Z"/><polygon class="cls-9" points="45.01 122.19 59.57 183.33 83.59 178.23 87.96 160.28 84.32 145.96 81.89 130.19 72.67 115.15 45.01 122.19"/><polygon class="cls-9" points="52.27 152.67 84.21 145.25 87.96 160.28 55.83 167.61 52.27 152.67"/><line class="cls-9" x1="48.71" y1="137.7" x2="81.89" y2="130.19"/><line class="cls-9" x1="70.11" y1="164.89" x2="73" y2="180.48"/><polygon class="cls-6" points="22.87 107.52 29.54 133.38 19.76 136.3 12.44 110.62 22.87 107.52"/><polygon class="cls-6" points="22.08 144.41 31.63 141.19 40.65 175.52 31.36 178.16 22.08 144.41"/><line class="cls-6" x1="25.36" y1="156.34" x2="34.9" y2="153.65"/><line class="cls-6" x1="16.22" y1="124.33" x2="25.76" y2="121.64"/><line class="cls-7" x1="28.5" y1="167.77" x2="37.93" y2="165.17"/></g><g><path class="cls-15" d="M11.33,104.96v-4.15l-1.36,2.7h-.94l-1.37-2.7v4.15h-1.39v-7.12h1.37l1.86,3.85,1.85-3.85h1.37v7.12h-1.39Z"/><path class="cls-15" d="M16.95,104.96v-.45c-.35,.35-.68,.5-1.28,.5s-1.02-.15-1.33-.46c-.28-.29-.43-.71-.43-1.17,0-.83,.57-1.51,1.78-1.51h1.23v-.26c0-.57-.28-.82-.97-.82-.5,0-.73,.12-1,.43l-.83-.81c.51-.56,1.01-.72,1.88-.72,1.46,0,2.22,.62,2.22,1.84v3.43h-1.27Zm-.03-2.2h-1.03c-.47,0-.73,.22-.73,.59s.24,.6,.75,.6c.36,0,.59-.03,.82-.25,.14-.13,.19-.34,.19-.66v-.28Z"/><path class="cls-15" d="M22.45,101.17c-.2-.2-.37-.31-.69-.31-.4,0-.84,.3-.84,.96v3.14h-1.3v-5.21h1.27v.5c.25-.3,.75-.56,1.31-.56,.51,0,.87,.13,1.23,.49l-.98,.99Z"/><path class="cls-15" d="M27,101.17c-.2-.2-.37-.31-.69-.31-.4,0-.84,.3-.84,.96v3.14h-1.3v-5.21h1.27v.5c.25-.3,.75-.56,1.31-.56,.51,0,.87,.13,1.23,.49l-.98,.99Z"/><path class="cls-15" d="M28.7,98.86v-1.06h1.33v1.06h-1.33Zm.02,6.1v-5.21h1.3v5.21h-1.3Z"/><path class="cls-15" d="M35.07,104.38c-.32,.34-.85,.64-1.62,.64s-1.29-.3-1.61-.64c-.47-.49-.59-1.08-.59-2.03s.12-1.53,.59-2.02c.32-.34,.84-.64,1.61-.64s1.3,.3,1.62,.64c.47,.49,.59,1.08,.59,2.02s-.12,1.54-.59,2.03Zm-1.01-3.29c-.15-.15-.35-.23-.61-.23s-.45,.08-.6,.23c-.27,.27-.3,.72-.3,1.26s.03,1,.3,1.27c.15,.15,.34,.23,.6,.23s.46-.08,.61-.23c.27-.27,.3-.73,.3-1.27s-.03-.99-.3-1.26Z"/><path class="cls-15" d="M38.53,104.96c-1.06,0-1.51-.75-1.51-1.49v-2.58h-.55v-.99h.55v-1.54h1.3v1.54h.92v.99h-.92v2.5c0,.3,.14,.47,.45,.47h.47v1.1h-.71Z"/><path class="cls-15" d="M42.05,104.96c-1.06,0-1.51-.75-1.51-1.49v-2.58h-.55v-.99h.55v-1.54h1.3v1.54h.92v.99h-.92v2.5c0,.3,.14,.47,.45,.47h.47v1.1h-.71Z"/><path class="cls-15" d="M43.89,106.61v-3.07h1.43v1.97l-1.43,1.1Z"/><path class="cls-15" d="M49.15,104.96v-7.12h1.39v5.88h3.23v1.24h-4.62Z"/><path class="cls-15" d="M55.82,102.76c0,.67,.41,1.16,1.14,1.16,.57,0,.85-.16,1.18-.49l.79,.77c-.53,.53-1.04,.82-1.98,.82-1.23,0-2.41-.56-2.41-2.67,0-1.7,.92-2.66,2.27-2.66,1.45,0,2.27,1.06,2.27,2.49v.58h-3.26Zm1.86-1.45c-.14-.31-.43-.54-.87-.54s-.73,.23-.87,.54c-.08,.19-.11,.33-.12,.56h1.98c0-.23-.04-.37-.12-.56Z"/><path class="cls-15" d="M62.43,104.96h-1.02l-1.92-5.21h1.37l1.06,3.22,1.05-3.22h1.37l-1.91,5.21Z"/><path class="cls-15" d="M66.03,102.76c0,.67,.41,1.16,1.14,1.16,.57,0,.85-.16,1.18-.49l.79,.77c-.53,.53-1.04,.82-1.98,.82-1.23,0-2.41-.56-2.41-2.67,0-1.7,.92-2.66,2.27-2.66,1.45,0,2.27,1.06,2.27,2.49v.58h-3.26Zm1.86-1.45c-.14-.31-.43-.54-.87-.54s-.73,.23-.87,.54c-.08,.19-.11,.33-.12,.56h1.98c0-.23-.04-.37-.12-.56Z"/><path class="cls-15" d="M71.96,104.96c-1.07,0-1.52-.75-1.52-1.49v-5.63h1.3v5.55c0,.31,.13,.47,.46,.47h.5v1.1h-.74Z"/><path class="cls-15" d="M75.92,104.96v-1.17l2.66-3.09c.26-.31,.37-.53,.37-.86,0-.53-.31-.89-.86-.89-.43,0-.87,.22-.87,.91h-1.3c0-1.3,.95-2.08,2.17-2.08s2.16,.79,2.16,2.07c0,.69-.27,1.06-.76,1.63l-1.99,2.31h2.75v1.17h-4.33Z"/><path class="cls-15" d="M11.33,115.2v-4.15l-1.36,2.7h-.94l-1.37-2.7v4.15h-1.39v-7.12h1.37l1.86,3.85,1.85-3.85h1.37v7.12h-1.39Z"/><path class="cls-15" d="M15.3,113c0,.67,.41,1.16,1.14,1.16,.57,0,.85-.16,1.18-.49l.79,.77c-.53,.53-1.04,.82-1.98,.82-1.23,0-2.41-.56-2.41-2.67,0-1.7,.92-2.66,2.27-2.66,1.45,0,2.27,1.06,2.27,2.49v.58h-3.26Zm1.86-1.45c-.14-.31-.43-.54-.87-.54s-.73,.23-.87,.54c-.08,.19-.11,.33-.12,.56h1.98c0-.23-.04-.37-.12-.56Z"/><path class="cls-15" d="M20.78,113c0,.67,.41,1.16,1.14,1.16,.57,0,.85-.16,1.18-.49l.79,.77c-.53,.53-1.04,.82-1.98,.82-1.23,0-2.41-.56-2.41-2.67,0-1.7,.92-2.66,2.27-2.66,1.45,0,2.27,1.06,2.27,2.49v.58h-3.26Zm1.86-1.45c-.14-.31-.43-.54-.87-.54s-.73,.23-.87,.54c-.08,.19-.11,.33-.12,.56h1.98c0-.23-.04-.37-.12-.56Z"/><path class="cls-15" d="M26.87,115.2c-1.06,0-1.51-.75-1.51-1.49v-2.58h-.55v-.99h.55v-1.54h1.3v1.54h.92v.99h-.92v2.5c0,.3,.14,.47,.45,.47h.47v1.1h-.71Z"/><path class="cls-15" d="M28.74,109.1v-1.06h1.33v1.06h-1.33Zm.02,6.1v-5.21h1.3v5.21h-1.3Z"/><path class="cls-15" d="M34.54,115.2v-3.15c0-.71-.45-.95-.86-.95s-.87,.24-.87,.95v3.15h-1.3v-5.21h1.27v.48c.34-.36,.82-.54,1.3-.54,.52,0,.94,.17,1.23,.46,.42,.42,.53,.91,.53,1.48v3.33h-1.3Z"/><path class="cls-15" d="M39.04,117.17c-.8,0-1.35-.16-1.89-.68l.81-.82c.29,.28,.58,.4,1.02,.4,.78,0,1.05-.55,1.05-1.08v-.53c-.34,.38-.73,.52-1.24,.52s-.95-.17-1.24-.46c-.49-.49-.53-1.16-.53-2.07s.04-1.57,.53-2.06c.29-.29,.74-.46,1.25-.46,.55,0,.91,.15,1.27,.55v-.49h1.26v5.02c0,1.25-.89,2.16-2.29,2.16Zm.13-6.07c-.77,0-.85,.66-.85,1.35s.08,1.36,.85,1.36,.86-.67,.86-1.36-.09-1.35-.86-1.35Z"/><path class="cls-15" d="M48.99,115.2l-1.39-2.84h-1v2.84h-1.39v-7.12h2.79c1.45,0,2.31,.99,2.31,2.18,0,1-.61,1.62-1.3,1.87l1.59,3.07h-1.61Zm-1.08-5.88h-1.31v1.88h1.31c.61,0,1.01-.39,1.01-.94s-.4-.94-1.01-.94Z"/><path class="cls-15" d="M55.25,114.62c-.32,.34-.85,.64-1.62,.64s-1.29-.3-1.61-.64c-.47-.49-.59-1.08-.59-2.03s.12-1.53,.59-2.02c.32-.34,.84-.64,1.61-.64s1.3,.3,1.62,.64c.47,.49,.59,1.08,.59,2.02s-.12,1.54-.59,2.03Zm-1.01-3.29c-.15-.15-.35-.23-.61-.23s-.45,.08-.6,.23c-.27,.27-.3,.72-.3,1.26s.03,1,.3,1.27c.15,.15,.34,.23,.6,.23s.46-.08,.61-.23c.27-.27,.3-.73,.3-1.27s-.03-.99-.3-1.26Z"/><path class="cls-15" d="M60.68,114.62c-.32,.34-.85,.64-1.62,.64s-1.29-.3-1.61-.64c-.47-.49-.59-1.08-.59-2.03s.12-1.53,.59-2.02c.32-.34,.84-.64,1.61-.64s1.3,.3,1.62,.64c.47,.49,.59,1.08,.59,2.02s-.12,1.54-.59,2.03Zm-1.01-3.29c-.15-.15-.35-.23-.61-.23s-.45,.08-.6,.23c-.27,.27-.3,.72-.3,1.26s.03,1,.3,1.27c.15,.15,.34,.23,.6,.23s.46-.08,.61-.23c.27-.27,.3-.73,.3-1.27s-.03-.99-.3-1.26Z"/><path class="cls-15" d="M68.57,115.2v-3.15c0-.71-.45-.95-.86-.95s-.87,.24-.87,.92v3.18h-1.3v-3.15c0-.71-.45-.95-.86-.95s-.87,.24-.87,.95v3.15h-1.3v-5.21h1.27v.48c.34-.35,.82-.54,1.3-.54,.58,0,1.05,.21,1.38,.66,.44-.46,.91-.66,1.56-.66,.52,0,.99,.17,1.28,.46,.42,.42,.57,.91,.57,1.48v3.33h-1.3Z"/><path class="cls-15" d="M72.98,115.26c-.82,0-1.56-.09-2.22-.75l.85-.85c.43,.43,.99,.49,1.39,.49,.45,0,.92-.15,.92-.54,0-.26-.14-.44-.55-.48l-.82-.08c-.94-.09-1.52-.5-1.52-1.46,0-1.08,.95-1.66,2.01-1.66,.81,0,1.49,.14,1.99,.61l-.8,.81c-.3-.27-.76-.35-1.21-.35-.52,0-.74,.24-.74,.5,0,.19,.08,.41,.54,.45l.82,.08c1.03,.1,1.55,.65,1.55,1.53,0,1.15-.98,1.7-2.21,1.7Z"/></g><polygon class="cls-3" points="40.65 175.52 37.93 165.17 28.5 167.77 31.36 178.16 40.65 175.52"/><g><path class="cls-17" d="M37.54,171.18v2.94l.85-.48-.02-4.6-3.26,1.39v5.07l1-.57v-3.05c-.09-.04-.16-.12-.16-.22,0-.13,.12-.24,.27-.24s.27,.11,.27,.24c0,.08-.04,.14-.1,.19v2.92l.89-.5v-3.08c-.09-.04-.14-.12-.14-.21,0-.13,.12-.24,.27-.24s.27,.11,.27,.24c0,.08-.05,.16-.12,.2Z"/><path class="cls-12" d="M31.42,172.01l2.19,1s.1-.05,.17-.05c.15,0,.27,.11,.27,.24s-.12,.24-.27,.24c-.13,0-.24-.09-.27-.2l-2.09-.95v1.39l3.69,1.83v-3.34l-2.17-.97s-.09,.04-.14,.04c-.15,0-.27-.11-.27-.24s.12-.24,.27-.24c.14,0,.26,.1,.27,.22l2.05,.92v-1.45l-3.7-1.41v2.99Z"/><polygon class="cls-18" points="31.42 169.02 34.89 167.83 38.37 169.04 35.11 170.43 31.42 169.02"/></g><g><path class="cls-19" d="M10.88,193.06h-.83v-1.34h1.1l.37-1.8h-1.47v-1.35h1.74l.48-2.38h1.37l-.48,2.38h1.35l.47-2.38h1.42l-.49,2.38h.84v1.35h-1.12l-.37,1.8h1.49v1.34h-1.76l-.48,2.38h-1.36l.47-2.38h-1.36l-.48,2.38h-1.38l.48-2.38Zm2.01-3.15l-.36,1.8h1.36l.35-1.8h-1.35Z"/><path class="cls-19" d="M19.09,195.3l-2.14-8.96h1.85l1.35,6.15,1.64-6.15h2.15l1.57,6.26,1.38-6.26h1.82l-2.18,8.96h-1.92l-1.79-6.7-1.78,6.7h-1.96Z"/><path class="cls-19" d="M29.51,187.92v-1.59h1.72v1.59h-1.72Zm0,7.37v-6.49h1.72v6.49h-1.72Z"/><path class="cls-19" d="M32.98,195.3v-8.96h1.72v8.96h-1.72Z"/><path class="cls-19" d="M36.46,195.3v-8.96h1.72v8.96h-1.72Z"/><path class="cls-19" d="M39.54,191.96c0-.57,.14-1.12,.42-1.66s.68-.94,1.2-1.22c.51-.28,1.09-.42,1.73-.42,.98,0,1.79,.32,2.41,.96,.63,.64,.94,1.44,.94,2.42s-.32,1.8-.95,2.44c-.63,.65-1.43,.97-2.39,.97-.59,0-1.16-.13-1.7-.4-.54-.27-.95-.66-1.23-1.18s-.42-1.15-.42-1.9Zm1.76,.09c0,.64,.15,1.14,.46,1.48,.31,.34,.68,.51,1.13,.51s.82-.17,1.13-.51c.3-.34,.46-.84,.46-1.49s-.15-1.12-.46-1.47c-.3-.34-.68-.51-1.13-.51s-.83,.17-1.13,.51c-.31,.34-.46,.84-.46,1.48Z"/><path class="cls-19" d="M48.79,195.3l-2.05-6.49h1.67l1.22,4.25,1.12-4.25h1.66l1.08,4.25,1.24-4.25h1.69l-2.08,6.49h-1.65l-1.12-4.17-1.1,4.17h-1.67Z"/><path class="cls-19" d="M64.98,192v-1.51h3.9v3.57c-.38,.37-.93,.69-1.65,.97-.72,.28-1.45,.42-2.18,.42-.94,0-1.75-.2-2.45-.59-.7-.39-1.22-.96-1.57-1.69-.35-.73-.53-1.53-.53-2.39,0-.93,.2-1.76,.59-2.49,.39-.72,.96-1.28,1.72-1.67,.57-.3,1.29-.45,2.14-.45,1.11,0,1.98,.23,2.61,.7,.62,.47,1.03,1.11,1.21,1.93l-1.8,.34c-.13-.44-.36-.79-.71-1.04-.35-.25-.78-.38-1.31-.38-.79,0-1.42,.25-1.88,.75-.47,.5-.7,1.25-.7,2.23,0,1.06,.24,1.86,.71,2.39,.47,.53,1.09,.8,1.86,.8,.38,0,.76-.07,1.14-.22,.38-.15,.71-.33,.98-.54v-1.14h-2.07Z"/><path class="cls-19" d="M70.53,195.3v-8.96h1.72v8.96h-1.72Z"/><path class="cls-19" d="M77.77,193.23l1.71,.29c-.22,.63-.57,1.11-1.04,1.43-.47,.33-1.07,.49-1.78,.49-1.13,0-1.96-.37-2.51-1.11-.43-.59-.64-1.34-.64-2.24,0-1.08,.28-1.92,.84-2.53,.56-.61,1.27-.91,2.13-.91,.96,0,1.73,.32,2.29,.96,.56,.64,.83,1.61,.8,2.93h-4.3c.01,.51,.15,.91,.42,1.19s.59,.42,.99,.42c.27,0,.5-.07,.68-.22,.18-.15,.32-.38,.42-.71Zm.1-1.74c-.01-.5-.14-.88-.38-1.13-.25-.26-.54-.39-.89-.39-.38,0-.68,.14-.93,.41-.25,.27-.37,.64-.36,1.11h2.57Z"/><path class="cls-19" d="M86.88,195.3h-1.72v-3.31c0-.7-.04-1.15-.11-1.36-.07-.21-.19-.37-.36-.48s-.36-.17-.6-.17c-.3,0-.56,.08-.8,.24s-.4,.38-.49,.65c-.09,.27-.13,.77-.13,1.49v2.94h-1.72v-6.49h1.6v.95c.57-.73,1.28-1.1,2.14-1.1,.38,0,.73,.07,1.04,.21,.31,.14,.55,.31,.71,.52,.16,.21,.27,.45,.34,.72,.06,.27,.09,.65,.09,1.15v4.03Z"/><path class="cls-19" d="M92.05,195.3v-8.96h1.81v8.96h-1.81Z"/></g></g></g></svg>