<svg id="Layer_1" data-name="Layer 1" xmlns="http://www.w3.org/2000/svg" viewBox="0 0 474.82 220"><defs><style>.cls-1{fill:#fff;}</style></defs><g id="_Global_Summit_" data-name="&lt;Global Summit&gt;"><polygon class="cls-1" points="110.71 48.2 117.3 46.44 115.21 49.76 118.2 48.96 121.09 44.35 116.28 41.8 113.3 42.61 116.81 44.46 110.18 46.23 110.71 48.2"/><polygon class="cls-1" points="103.03 66.08 98.74 65.36 98.33 69.69 99.83 71.65 100.13 68.48 103.47 72.84 104.76 71.85 101.43 67.52 104.53 68.04 103.03 66.08"/><polygon class="cls-1" points="110.89 64.41 111.99 61.43 114.09 66.5 115.59 65.88 113.5 60.83 116.36 62.14 115.41 59.86 111.46 58.04 109.94 62.12 110.89 64.41"/><polygon class="cls-1" points="154.86 155.6 153.77 158.57 151.66 153.5 150.16 154.12 152.25 159.17 149.4 157.87 150.34 160.15 154.29 161.96 155.81 157.88 154.86 155.6"/><polygon class="cls-1" points="127.46 44.57 134.28 44.58 131.41 47.24 134.49 47.24 138.48 43.53 134.49 39.83 131.41 39.83 134.32 42.54 127.46 42.54 127.46 44.57"/><polygon class="cls-1" points="125.78 156.86 125.06 162.27 123.25 159.72 122.92 162.16 125.44 165.7 128.8 162.93 129.12 160.49 126.68 162.51 127.39 157.07 125.78 156.86"/><polygon class="cls-1" points="138.29 175.43 131.47 175.43 134.34 172.76 131.26 172.76 127.27 176.47 131.26 180.18 134.34 180.18 131.43 177.47 138.29 177.47 138.29 175.43"/><polygon class="cls-1" points="139.97 63.15 140.69 57.73 142.5 60.29 142.82 57.84 140.31 54.3 136.95 57.07 136.63 59.52 139.07 57.49 138.36 62.93 139.97 63.15"/><polygon class="cls-1" points="142.64 162.19 142.32 159.74 140.48 162.33 139.76 156.88 138.15 157.09 138.86 162.51 136.44 160.51 136.76 162.96 140.12 165.73 142.64 162.19"/><polygon class="cls-1" points="121.17 174.61 114.58 172.84 118.05 171 115.07 170.21 110.26 172.76 113.15 177.37 116.13 178.16 114.02 174.8 120.64 176.57 121.17 174.61"/><polygon class="cls-1" points="113.9 153.43 111.8 158.47 110.71 155.53 109.77 157.81 111.28 161.88 115.24 160.07 116.18 157.79 113.3 159.12 115.4 154.04 113.9 153.43"/><polygon class="cls-1" points="103.3 147.02 99.98 151.36 99.68 148.24 98.18 150.2 98.59 154.53 102.88 153.8 104.38 151.84 101.25 152.38 104.59 148.02 103.3 147.02"/><polygon class="cls-1" points="163.19 18.9 164.4 14.39 159.31 17.58 162.01 7.53 159.02 6.74 156.34 16.73 153.56 11.48 152.34 15.99 156.21 23.29 163.19 18.9"/><polygon class="cls-1" points="141.1 33.69 144.91 34.2 141.75 30.38 150.26 31.49 150.58 28.98 142.13 27.86 146.12 25.02 142.3 24.52 136.75 28.45 141.1 33.69"/><polygon class="cls-1" points="123.11 57.82 123.44 60.27 125.27 57.68 125.99 63.12 127.6 62.91 126.89 57.49 129.31 59.49 128.99 57.05 125.64 54.28 123.11 57.82"/><polygon class="cls-1" points="102.73 18.86 109.72 23.23 113.58 15.95 112.37 11.43 109.56 16.74 106.87 6.7 103.89 7.5 106.57 17.5 101.53 14.34 102.73 18.86"/><polygon class="cls-1" points="124.89 33.67 120.84 30.79 129.34 29.68 129.01 27.16 120.55 28.27 123.68 24.48 119.86 24.99 115.52 30.22 121.06 34.17 124.89 33.67"/><polygon class="cls-1" points="138.58 14.16 138.58 9.48 134.49 13.89 134.49 3.48 131.4 3.48 131.4 13.84 127.36 9.48 127.36 14.16 132.97 20.2 138.58 14.16"/><polygon class="cls-1" points="144.58 45.4 151.17 47.17 147.7 49 150.68 49.8 155.49 47.25 152.6 42.65 149.62 41.85 151.73 45.21 145.1 43.43 144.58 45.4"/><polygon class="cls-1" points="164.11 29.87 157.73 32.23 160.57 38.42 164.12 39.9 162.06 35.39 169.98 38.66 170.95 36.32 163.07 33.06 167.67 31.34 164.11 29.87"/><polygon class="cls-1" points="151.86 66.58 153.95 61.53 155.05 64.48 155.98 62.2 154.48 58.12 150.51 59.93 149.57 62.21 152.45 60.88 150.36 65.95 151.86 66.58"/><polygon class="cls-1" points="162.45 72.97 165.78 68.64 166.07 71.77 167.57 69.8 167.16 65.48 162.87 66.2 161.37 68.16 164.49 67.63 161.16 71.98 162.45 72.97"/><polygon class="cls-1" points="166.69 48.5 167.86 52.3 161.92 48.87 160.91 50.63 166.81 54.05 162.98 54.92 165.66 56.46 170.96 55.25 169.36 50.05 166.69 48.5"/><polygon class="cls-1" points="213.9 127.71 215.01 119.25 217.85 123.25 218.36 119.43 214.43 113.88 209.18 118.22 208.69 122.04 212.5 118.88 211.39 127.38 213.9 127.71"/><polygon class="cls-1" points="176.11 155.53 175.91 160.97 181.35 160.77 183.53 158.59 179.56 158.73 184.42 153.88 182.98 152.44 178.15 157.26 178.29 153.34 176.11 155.53"/><polygon class="cls-1" points="207.99 42.95 201.98 43.18 209.34 35.82 207.15 33.65 199.83 40.96 200.05 35.02 196.74 38.33 196.44 46.57 204.68 46.26 207.99 42.95"/><polygon class="cls-1" points="155.05 171.81 148.45 173.56 150.54 170.24 147.56 171.05 144.66 175.66 149.47 178.19 152.45 177.41 148.94 175.55 155.57 173.77 155.05 171.81"/><polygon class="cls-1" points="186.66 177.12 187.8 170.4 181.02 169.77 177.97 172.12 182.9 172.58 176.1 177.8 177.65 179.82 184.41 174.63 183.6 179.46 186.66 177.12"/><polygon class="cls-1" points="181.34 131.07 178.4 132.17 180.68 133.11 184.77 131.59 182.95 127.64 180.67 126.7 181.99 129.57 176.92 127.47 176.3 128.99 181.34 131.07"/><polygon class="cls-1" points="185.06 100.24 182.61 100.56 185.2 102.4 179.76 103.11 179.97 104.73 185.38 104.02 183.38 106.43 185.83 106.11 188.61 102.76 185.06 100.24"/><polygon class="cls-1" points="177 92.72 182.05 90.63 180.74 93.49 183.02 92.54 184.84 88.59 180.76 87.06 178.47 88.01 181.45 89.11 176.38 91.22 177 92.72"/><polygon class="cls-1" points="222.78 64.68 216.93 63.34 225.92 58.14 224.39 55.47 215.42 60.64 217.16 54.97 213.11 57.29 210.69 65.18 218.72 67.02 222.78 64.68"/><polygon class="cls-1" points="224.02 79.86 219.64 86.85 226.93 90.7 231.44 89.49 226.14 86.68 236.17 83.98 235.38 81.01 225.38 83.69 228.54 78.66 224.02 79.86"/><polygon class="cls-1" points="217.89 96.98 212.65 92.64 208.72 98.19 209.22 102.01 212.08 97.97 213.21 106.47 215.73 106.14 214.62 97.68 218.39 100.8 217.89 96.98"/><polygon class="cls-1" points="211.62 75.42 205.45 72.59 203.08 78.97 204.55 82.53 206.27 77.88 209.55 85.8 211.9 84.83 208.63 76.95 213.09 78.98 211.62 75.42"/><polygon class="cls-1" points="105.4 38.33 100.75 36.61 108.67 33.32 107.7 30.98 99.82 34.24 101.86 29.77 98.3 31.26 95.46 37.44 101.84 39.81 105.4 38.33"/><polygon class="cls-1" points="185.03 119.95 188.58 117.44 185.81 114.07 183.36 113.76 185.38 116.2 179.94 115.48 179.73 117.1 185.15 117.81 182.59 119.63 185.03 119.95"/><polygon class="cls-1" points="176.21 64.59 178.4 66.77 183.84 66.97 183.64 61.53 181.46 59.35 181.6 63.31 176.75 58.46 175.31 59.9 180.14 64.73 176.21 64.59"/><polygon class="cls-1" points="185.74 29.85 188.08 25.8 182.33 27.57 187.53 18.56 184.85 17.02 179.69 25.98 178.36 20.19 176.01 24.24 177.86 32.28 185.74 29.85"/><polygon class="cls-1" points="162.72 153.92 167.01 154.64 167.42 150.32 165.91 148.35 165.62 151.51 162.28 147.16 160.99 148.15 164.32 152.49 161.22 151.96 162.72 153.92"/><polygon class="cls-1" points="186.85 43.03 183.78 40.69 177.01 41.31 178.15 48.02 181.21 50.37 180.37 45.48 187.18 50.7 188.72 48.69 181.95 43.49 186.85 43.03"/><polygon class="cls-1" points="170.03 80.61 171.02 81.9 175.36 78.56 174.84 81.65 176.8 80.15 177.52 75.87 173.19 75.45 171.23 76.96 174.39 77.26 170.03 80.61"/><polygon class="cls-1" points="193.92 95.32 198.53 98.22 201.07 93.41 200.27 90.43 198.41 93.94 196.64 87.31 194.68 87.84 196.44 94.43 193.12 92.34 193.92 95.32"/><polygon class="cls-1" points="200.23 129.73 201.03 126.75 197.68 128.86 199.44 122.23 197.49 121.71 195.71 128.29 193.88 124.83 193.08 127.82 195.63 132.62 200.23 129.73"/><polygon class="cls-1" points="194.38 143.82 190.58 144.99 194.01 139.05 192.25 138.03 188.84 143.94 187.96 140.12 186.42 142.79 187.63 148.09 192.83 146.49 194.38 143.82"/><polygon class="cls-1" points="195.46 59.98 200.68 66.78 202.7 65.23 197.5 58.47 202.33 59.28 199.99 56.22 193.28 55.08 192.64 61.85 195 64.91 195.46 59.98"/><polygon class="cls-1" points="186.83 72.6 190.24 78.51 186.5 77.35 188.04 80.02 193.24 81.63 194.45 76.32 192.91 73.65 192.03 77.52 188.6 71.58 186.83 72.6"/><polygon class="cls-1" points="203.04 108.54 200.34 111.44 200.34 104.58 198.31 104.58 198.31 111.41 195.64 108.54 195.64 111.62 199.34 115.6 203.04 111.62 203.04 108.54"/><polygon class="cls-1" points="52.75 78.77 55.11 85.15 61.3 82.31 62.77 78.75 58.26 80.82 61.54 72.89 59.2 71.93 55.93 79.81 54.21 75.21 52.75 78.77"/><polygon class="cls-1" points="101.64 190.13 108.02 187.77 105.18 181.58 101.63 180.11 103.69 184.62 95.77 181.34 94.8 183.69 102.68 186.95 98.08 188.66 101.64 190.13"/><polygon class="cls-1" points="140.87 186.34 144.91 189.21 136.41 190.33 136.74 192.84 145.2 191.73 142.07 195.52 145.89 195.01 150.24 189.78 144.69 185.83 140.87 186.34"/><polygon class="cls-1" points="95.72 139.4 94.73 138.12 90.39 141.44 90.92 138.35 88.96 139.84 88.23 144.14 92.57 144.55 94.52 143.04 91.37 142.76 95.72 139.4"/><polygon class="cls-1" points="102.57 201.09 101.35 205.61 106.44 202.43 103.75 212.46 106.73 213.26 109.41 203.27 112.19 208.52 113.4 204.01 109.54 196.71 102.57 201.09"/><polygon class="cls-1" points="124.66 186.3 120.84 185.81 124 189.62 115.5 188.51 115.17 191.02 123.62 192.14 119.63 194.99 123.45 195.48 129 191.55 124.66 186.3"/><polygon class="cls-1" points="127.17 205.83 127.17 210.52 131.26 206.11 131.26 216.51 134.35 216.51 134.35 206.16 138.4 210.52 138.4 205.83 132.78 199.8 127.17 205.83"/><polygon class="cls-1" points="99.06 171.49 97.89 167.71 103.83 171.14 104.85 169.37 98.94 165.96 102.77 165.09 100.09 163.54 94.78 164.76 96.39 169.97 99.06 171.49"/><polygon class="cls-1" points="70.29 160.03 65.07 153.22 63.06 154.77 68.25 161.54 63.41 160.72 65.77 163.78 72.47 164.92 73.11 158.15 70.76 155.09 70.29 160.03"/><polygon class="cls-1" points="101.38 52.64 100.22 56.39 102.89 54.84 104.5 49.64 99.19 48.43 96.53 49.97 100.39 50.85 94.45 54.28 95.47 56.04 101.38 52.64"/><polygon class="cls-1" points="78.91 176.97 81.97 179.32 88.74 178.68 87.6 171.98 84.55 169.63 85.37 174.52 78.57 169.3 77.02 171.32 83.79 176.51 78.91 176.97"/><polygon class="cls-1" points="80.02 190.14 77.68 194.19 83.42 192.43 78.22 201.43 80.89 202.98 86.07 194.01 87.4 199.81 89.74 195.76 87.9 187.72 80.02 190.14"/><polygon class="cls-1" points="89.53 155.42 87.35 153.24 81.91 153.04 82.12 158.47 84.29 160.65 84.15 156.69 89 161.55 90.44 160.1 85.62 155.28 89.53 155.42"/><polygon class="cls-1" points="231.4 130.68 226.88 129.47 219.59 133.34 223.97 140.31 228.49 141.52 225.3 136.43 235.34 139.12 236.14 136.14 226.15 133.46 231.4 130.68"/><polygon class="cls-1" points="207.86 177.17 204.55 173.87 196.31 173.56 196.62 181.8 199.92 185.11 199.7 179.1 207.05 186.46 209.23 184.27 201.92 176.96 207.86 177.17"/><polygon class="cls-1" points="213.01 141.24 210.64 134.85 204.46 137.68 202.99 141.25 207.49 139.19 204.21 147.11 206.56 148.08 209.82 140.2 211.53 144.79 213.01 141.24"/><polygon class="cls-1" points="222.69 155.48 218.63 153.14 210.6 154.98 213.03 162.86 217.08 165.2 215.31 159.46 224.32 164.65 225.85 161.98 216.89 156.81 222.69 155.48"/><polygon class="cls-1" points="229.04 108.53 233.4 104.48 228.72 104.48 222.67 110.09 228.72 115.7 233.4 115.7 228.99 111.62 239.39 111.62 239.39 108.53 229.04 108.53"/><polygon class="cls-1" points="163.02 201.15 156.02 196.76 152.17 204.05 153.38 208.57 156.19 203.27 158.89 213.3 161.86 212.5 159.18 202.5 164.22 205.66 163.02 201.15"/><polygon class="cls-1" points="57.77 177.04 63.77 176.83 56.42 184.17 58.6 186.35 65.92 179.03 65.7 184.98 69.01 181.68 69.31 173.42 61.07 173.73 57.77 177.04"/><polygon class="cls-1" points="164.37 167.37 165.53 163.63 162.86 165.16 161.25 170.37 166.56 171.57 169.23 170.03 165.36 169.16 171.3 165.72 170.28 163.97 164.37 167.37"/><polygon class="cls-1" points="160.35 181.67 165 183.39 157.08 186.67 158.05 189.03 165.93 185.76 163.89 190.22 167.45 188.75 170.29 182.56 163.91 180.2 160.35 181.67"/><polygon class="cls-1" points="185.58 190.24 177.69 187.82 175.86 195.85 178.2 199.9 179.54 194.04 184.74 203.04 187.4 201.5 182.23 192.53 187.92 194.29 185.58 190.24"/><polygon class="cls-1" points="176.68 140 174.72 138.49 175.25 141.62 170.9 138.28 169.9 139.57 174.24 142.9 171.11 143.2 173.07 144.69 177.4 144.29 176.68 140"/><polygon class="cls-1" points="199.85 163.97 202.2 160.91 201.56 154.14 194.85 155.28 192.51 158.32 197.39 157.51 192.18 164.3 194.19 165.86 199.38 159.08 199.85 163.97"/><polygon class="cls-1" points="78.92 147.41 75.51 141.51 79.25 142.66 77.71 139.98 72.51 138.38 71.3 143.68 72.84 146.35 73.72 142.49 77.15 148.42 78.92 147.41"/><polygon class="cls-1" points="89.64 64.48 89.84 59.04 84.4 59.24 82.22 61.42 86.19 61.28 81.33 66.12 82.78 67.56 87.6 62.74 87.46 66.67 89.64 64.48"/><polygon class="cls-1" points="80.72 100.06 77.17 102.57 79.94 105.93 82.4 106.25 80.36 103.81 85.8 104.51 86.02 102.91 80.6 102.2 83.16 100.37 80.72 100.06"/><polygon class="cls-1" points="42.98 155.32 48.83 156.67 39.83 161.86 41.37 164.53 50.33 159.35 48.58 165.03 52.64 162.7 55.06 154.82 47.02 152.98 42.98 155.32"/><polygon class="cls-1" points="84.4 88.93 87.35 87.84 85.07 86.89 81 88.41 82.8 92.37 85.09 93.31 83.76 90.43 88.83 92.52 89.45 91.02 84.4 88.93"/><polygon class="cls-1" points="76.91 76.07 77.79 79.89 79.33 77.22 78.12 71.91 72.92 73.51 71.37 76.19 75.17 75.02 71.74 80.96 73.5 81.97 76.91 76.07"/><polygon class="cls-1" points="83.14 119.44 80.55 117.61 86 116.88 85.78 115.28 80.36 115.99 82.36 113.57 79.92 113.89 77.15 117.24 80.7 119.77 83.14 119.44"/><polygon class="cls-1" points="89.07 80.01 91.04 81.5 90.5 78.38 94.86 81.72 95.85 80.43 91.51 77.1 94.64 76.81 92.68 75.31 88.35 75.72 89.07 80.01"/><polygon class="cls-1" points="88.75 127.28 83.71 129.37 85.01 126.53 82.73 127.47 80.92 131.42 85 132.94 87.28 131.99 84.3 130.89 89.37 128.78 88.75 127.28"/><polygon class="cls-1" points="80.17 29.76 88.06 32.19 89.9 24.15 87.56 20.1 86.22 25.95 81.02 16.95 78.34 18.49 83.52 27.45 77.83 25.71 80.17 29.76"/><polygon class="cls-1" points="71.83 124.68 67.22 121.79 64.68 126.6 65.48 129.57 67.33 126.07 69.11 132.7 71.07 132.17 69.31 125.58 72.63 127.66 71.83 124.68"/><polygon class="cls-1" points="67.44 115.42 67.44 108.6 70.11 111.47 70.11 108.38 66.41 104.4 62.71 108.38 62.71 111.47 65.4 108.56 65.4 115.42 67.44 115.42"/><polygon class="cls-1" points="70.12 87.39 65.52 90.28 64.72 93.26 68.08 91.15 66.3 97.77 68.27 98.3 70.04 91.71 71.87 95.17 72.66 92.19 70.12 87.39"/><polygon class="cls-1" points="79.1 42.89 77.95 49.59 84.73 50.23 87.79 47.89 82.85 47.42 89.65 42.2 88.1 40.19 81.34 45.38 82.15 40.54 79.1 42.89"/><polygon class="cls-1" points="41.73 140.14 46.11 133.15 38.83 129.29 34.31 130.5 39.62 133.32 29.58 136.01 30.38 138.99 40.37 136.3 37.21 141.35 41.73 140.14"/><polygon class="cls-1" points="43.07 64.52 47.11 66.86 55.15 65.02 52.73 57.14 48.68 54.8 50.45 60.54 41.44 55.34 39.9 58.02 48.86 63.19 43.07 64.52"/><polygon class="cls-1" points="60.31 147.41 62.68 141.04 61.21 137.48 59.48 142.13 56.2 134.2 53.85 135.18 57.11 143.06 52.66 141.02 54.13 144.58 60.31 147.41"/><polygon class="cls-1" points="32.36 115.53 37.03 115.53 43.07 109.9 37.04 104.29 32.36 104.29 36.76 108.38 26.36 108.38 26.36 111.47 36.72 111.47 32.36 115.53"/><polygon class="cls-1" points="34.35 89.31 38.87 90.53 46.16 86.67 41.77 79.68 37.26 78.48 40.45 83.57 30.41 80.87 29.61 83.86 39.61 86.53 34.35 89.31"/><polygon class="cls-1" points="57.9 42.83 61.2 46.13 69.45 46.43 69.14 38.2 65.83 34.9 66.05 40.89 58.7 33.55 56.52 35.72 63.84 43.04 57.9 42.83"/><polygon class="cls-1" points="51.85 92.3 50.74 100.75 47.89 96.75 47.39 100.58 51.32 106.12 56.57 101.79 57.07 97.97 53.25 101.13 54.37 92.63 51.85 92.3"/><polygon class="cls-1" points="65.9 56.03 63.56 59.1 64.19 65.87 70.9 64.73 73.25 61.67 68.36 62.51 73.58 55.69 71.56 54.16 66.37 60.93 65.9 56.03"/><polygon class="cls-1" points="47.87 123.02 53.1 127.37 57.04 121.82 56.54 118 53.66 122.04 52.54 113.54 50.03 113.87 51.14 122.33 47.36 119.2 47.87 123.02"/><path class="cls-1" d="M167.09,128.43l-18-16.25L143,122.78,139.37,121l3-7.11-9-18.13L114,127.5l-3.35-1.94,7.71-14.11-5.72-4-15,18.6a38.54,38.54,0,0,0,69.52,2.38Z"/><path class="cls-1" d="M171.49,110.61a38.59,38.59,0,1,0-77.17,0A38.21,38.21,0,0,0,96,121.68l13.66-20.05L111.41,99l2.43,2,7,5.84,10.29-18.83,2.84-5.2,2.45,5.41,8.73,19.26.59-1.39,1.7-4,3.06,3.16,18.42,19.06A38.21,38.21,0,0,0,171.49,110.61Z"/><path class="cls-1" d="M282.26,83.25h20.11c10.25,0,13.78-5.24,13.78-15V50.21c0-9.76-3.66-15-13.78-15H282.26c-10.25,0-13.78,5.23-13.78,15V68.26C268.48,78,272,83.25,282.26,83.25ZM279.94,50c0-3.16,2.07-3.77,4.88-3.77h15.12c2.8,0,4.87.61,4.87,3.77V68.5c0,3.17-2.07,3.78-4.87,3.78H284.82c-2.81,0-4.88-.61-4.88-3.78Z"/><path class="cls-1" d="M434.67,35.3H404a2.46,2.46,0,0,0-2.56,2.32V80.78a2.56,2.56,0,0,0,2.44,2.56h6.47a2.55,2.55,0,0,0,2.43-2.56v-16h21.94c9.77,0,13.79-5.12,13.79-14.51C448.46,40.54,444.92,35.3,434.67,35.3Zm-2.8,18.53H412.73V46.27h19.39c2.8,0,5,.61,5,3.78S434.8,53.83,431.87,53.83Z"/><path class="cls-1" d="M382.6,68.89H371.25c-.18,2.81-2.17,3.39-4.84,3.39H351.29c-2.81,0-4.88-.61-4.88-3.78V50c0-3.16,2.07-3.77,4.88-3.77h15.12c2.68,0,4.66.58,4.84,3.39H382.6c-.16-9.35-3.87-14.36-13.77-14.36H348.72c-10.24,0-13.77,5.23-13.77,15V68.26c0,9.75,3.53,15,13.77,15h20.11C378.86,83.25,382.44,78.22,382.6,68.89Z"/><path class="cls-1" d="M285.76,134.87c-10.19,0-14.74-5.66-14.74-17,0-11.77,5.66-16.9,14.94-16.9a18.34,18.34,0,0,1,7.73,1.52,17.06,17.06,0,0,1-.82,2.63,16.19,16.19,0,0,0-7-1.66c-7.54,0-11.94,3.27-11.94,14.6s4.4,14.31,12,14.31a14.7,14.7,0,0,0,5.75-1.22V120.81h-7.59a10.87,10.87,0,0,1-.29-2.49h10.63v14.45A20.44,20.44,0,0,1,285.76,134.87Z"/><path class="cls-1" d="M322.93,134.38H306.11V101.47h2.76v30.47h14.4A9.34,9.34,0,0,1,322.93,134.38Z"/><path class="cls-1" d="M342.72,134.87c-8.46,0-13-5.66-13-16.75s4.64-17.14,13-17.14,12.9,5.67,12.9,17S350.69,134.87,342.72,134.87Zm0-31.4c-6.58,0-10,3.67-10,14.46,0,10,2.9,14.45,10,14.45,6.91,0,9.95-4.25,9.95-14.45C352.67,107.28,349.24,103.47,342.72,103.47Z"/><path class="cls-1" d="M374.78,134.82a67.5,67.5,0,0,1-8.22-.68V101.81a62,62,0,0,1,8-.68c6.43,0,10.54,2.44,10.54,8.54a8,8,0,0,1-4.74,7.28v.24c3.58,1.22,5.95,3.76,5.95,7.91C386.33,132.09,381,134.82,374.78,134.82Zm.29-31.44a54.79,54.79,0,0,0-5.9.34v12.59h6.52a6.27,6.27,0,0,0,6.67-6.64C382.36,105.72,379.8,103.38,375.07,103.38Zm1,15.13h-6.91V132a52.14,52.14,0,0,0,5.9.44c5.46,0,8.4-2.59,8.4-7.43C383.47,121.1,380.77,118.51,376.08,118.51Z"/><path class="cls-1" d="M416,134.63,412.1,123.1H399.34l-3.92,11.53a8.08,8.08,0,0,1-2.37-.49c3.29-10.5,7.25-21.78,11.46-32.67h2.61c3.86,10.45,8,22.17,11.45,32.67A9.78,9.78,0,0,1,416,134.63Zm-9.76-28.81a7.71,7.71,0,0,1-.39-1.91h-.24a8.19,8.19,0,0,1-.34,1.91l-5.17,15h11.21Z"/><path class="cls-1" d="M444.32,134.38H427.5V101.47h2.75v30.47h14.4A9.29,9.29,0,0,1,444.32,134.38Z"/><path class="cls-1" d="M280.18,185.12a22,22,0,0,1-8.34-1.48,10.26,10.26,0,0,1,.71-2.48,18,18,0,0,0,7.77,1.53c4.48,0,6.93-2.05,6.93-5.9,0-8.1-15.51-7.43-15.51-16.33,0-5.38,4.06-8.38,9.95-8.38a31.94,31.94,0,0,1,6.6.67,11.17,11.17,0,0,1-.57,2.61,21.72,21.72,0,0,0-6.13-.85c-5.79,0-7.21,2.38-7.21,5.57,0,7,15.51,6.38,15.51,16.51C289.89,181.31,286.5,185.12,280.18,185.12Z"/><path class="cls-1" d="M309.6,185.12c-6.88,0-10.6-2.48-10.6-12.9V152.56h2.69v20.37c0,6.95,1.74,9.81,8,9.81,5.42,0,8.1-3,8.1-9.81V152.56h2.45v19.66C320.25,180.21,317.9,185.12,309.6,185.12Z"/><path class="cls-1" d="M358.77,184.78l-2.26-26.37c-.05-.67-.05-1.43-.05-2.62h-.23a13.5,13.5,0,0,1-.52,2.62l-8.62,26.23h-2.41l-8.43-26.23a11.85,11.85,0,0,1-.47-2.62h-.24c0,1.15-.05,2.1-.09,2.62L333,184.78a9.31,9.31,0,0,1-2.31-.28c.8-10.52,1.93-21.19,3.16-31.94h3l8.39,25.75a23.37,23.37,0,0,1,.75,3.38h.23a21.35,21.35,0,0,1,.66-3.43l8.49-25.7h3.06c1.18,10.71,2.22,21.46,2.92,31.94A10.83,10.83,0,0,1,358.77,184.78Z"/><path class="cls-1" d="M399.08,184.78l-2.26-26.37c0-.67,0-1.43,0-2.62h-.24a12.79,12.79,0,0,1-.52,2.62l-8.62,26.23H385l-8.43-26.23a11.85,11.85,0,0,1-.47-2.62h-.24c0,1.15-.05,2.1-.09,2.62l-2.5,26.37a9.31,9.31,0,0,1-2.31-.28c.8-10.52,1.93-21.19,3.16-31.94h3l8.39,25.75a23.37,23.37,0,0,1,.75,3.38h.23a20.24,20.24,0,0,1,.67-3.43l8.48-25.7h3.06c1.18,10.71,2.22,21.46,2.92,31.94A10.83,10.83,0,0,1,399.08,184.78Z"/><path class="cls-1" d="M412.33,184.64V152.56H415v32.08Z"/><path class="cls-1" d="M443.94,154.94H435v29.7h-2.69v-29.7h-8.95v-2.38h20.88A8.75,8.75,0,0,1,443.94,154.94Z"/></g></svg>